<?xml version="1.0" encoding="utf-8"?>
<!-- Generator: Adobe Illustrator 16.0.0, SVG Export Plug-In . SVG Version: 6.00 Build 0)  -->
<!DOCTYPE svg PUBLIC "-//W3C//DTD SVG 1.1//EN" "http://www.w3.org/Graphics/SVG/1.1/DTD/svg11.dtd">
<svg version="1.1" id="Layer_1" xmlns="http://www.w3.org/2000/svg" xmlns:xlink="http://www.w3.org/1999/xlink" x="0px" y="0px"
	 width="64px" height="64px" viewBox="0 0 64 64" enable-background="new 0 0 64 64" xml:space="preserve">
<path d="M63.908,28.786L57.604,14.58c-0.137-0.272-0.392-0.488-0.698-0.59c-0.335-0.112-0.682-0.1-0.919,0.019l-12.725,5.987
	l-8.931-3.944l-0.063-0.051h-0.09c-0.328-0.12-1.197-0.439-2.445-0.439c-1.355,0-3.029,0.364-4.766,1.592
	c-2.741,0.01-6.268,1.624-7.704,2.289c-0.208,0.053-0.388,0.134-0.553,0.21c-0.027,0.015-0.054,0.027-0.08,0.039
	c-1.194-0.642-4.671-2.548-7.56-4.13l-1.306-0.715c-0.518-0.261-1.224-0.057-1.536,0.465l-8.04,13.654
	c-0.166,0.277-0.226,0.591-0.166,0.886c0.063,0.314,0.254,0.582,0.536,0.751l13.952,8.458c-0.175,0.693-0.16,1.368,0.055,2.012
	c0.541,1.625,2.192,2.429,3.192,2.757c0.267,0.898,0.74,1.513,1.193,1.916c0.758,0.605,1.662,0.927,2.613,0.927
	c0.127,0,0.25-0.018,0.374-0.028c0.014,0.019,0.02,0.042,0.032,0.063c0.763,1.186,2.077,1.845,4.014,2.01l0.057,0.002
	c0.055,0,0.101-0.021,0.154-0.028c0.823,0.873,2.062,1.396,3.26,1.396c1.311,0,2.344-0.696,2.731-1.843
	c1.235,0.748,2.849,1.54,4.174,1.54c0.313,0,0.583,0,0.994-0.106c0.984-0.402,1.653-0.98,1.995-1.685
	c0.174,0.033,0.335,0.047,0.501,0.047c1.065,0,2.072-0.526,2.51-1.274c0.455-0.495,0.729-1.072,0.831-1.696
	c0.024,0.002,0.048,0.012,0.074,0.012c0.629,0,1.233-0.184,1.704-0.499c0.862-0.433,1.686-1.45,1.858-3.071
	c0.025,0,0.058,0.004,0.079,0.004c1.005,0,2.077-0.455,2.66-1.12c0.748-0.808,0.989-1.827,0.748-2.885l13.155-7.231
	C63.949,29.921,64.126,29.329,63.908,28.786z M47.632,37.245c0.572,0.786,0.423,1.164,0.195,1.429
	c-0.339,0.339-0.815,0.464-1.045,0.493c-0.045-0.032-4.543-3.423-7.437-5.692c-0.467-0.35-1.303-0.225-1.65,0.235
	c-0.173,0.233-0.248,0.552-0.202,0.871c0.046,0.32,0.206,0.604,0.439,0.779c0.465,0.349,1.617,1.231,2.892,2.203
	c1.53,1.17,2.793,2.136,3.63,2.77c0.084,1.166-0.12,1.908-0.671,2.242c-0.157,0.111-0.328,0.168-0.508,0.168
	c-0.142,0-0.251-0.037-0.23-0.023c-0.667-0.445-4.958-4.101-6.766-5.641c-0.433-0.432-1.186-0.391-1.654,0.077
	c-0.233,0.233-0.343,0.542-0.311,0.87c0.029,0.285,0.166,0.564,0.443,0.834c0.114,0.083,1.11,0.926,2.165,1.82
	c1.324,1.119,2.864,2.423,3.856,3.238c0.278,0.757,0.107,1.089-0.106,1.303c-0.3,0.351-0.68,0.476-0.857,0.478
	c-0.15-0.044-0.374-0.161-0.644-0.333c-0.129-0.137-0.287-0.241-0.463-0.311c-1.367-0.968-3.496-2.82-5.01-4.333
	c-0.45-0.453-1.203-0.451-1.653,0c-0.197,0.196-0.3,0.449-0.328,0.713c-0.387-0.705-1.078-1.384-2.298-1.546
	c-0.413-0.83-1.299-1.932-3.034-2.095c-0.29-0.025-0.564-0.008-0.827,0.042c-0.364-0.727-0.964-1.521-1.887-1.843
	c-0.764-0.256-1.9-0.021-2.938,0.574c-0.512-0.537-1.268-1.108-2.241-1.2c-1.02-0.091-1.895,0.368-2.792,1.447
	c-0.022,0.025-0.039,0.054-0.059,0.081L2.868,29.189l6.866-11.731c6.711,3.714,8.088,4.451,8.476,4.597
	c0.474,0.229,0.775,0.122,2.006-0.453l0.353-0.152c0.877-0.378,2.175-0.933,3.491-1.355c-0.586,0.801-1.165,1.729-1.723,2.818
	c-0.499,0.914-0.47,2.057,0.083,3.068c0.868,1.475,2.941,1.887,4.805,0.918c1.67-0.869,2.919-1.784,3.59-2.275l0.146-0.105
	c0.725-0.005,1.345-0.041,1.881-0.109c0.659,1.511,2.48,5.003,8.242,6.518l6.475,6.134C47.586,37.122,47.596,37.186,47.632,37.245z
	 M28.636,42.199h0.139c0.601,0,0.813,0.097,1.044,1.307c0.228,0.681,0.412,2.332-0.012,4.107c-0.013,0.059-0.184,0.118-0.423,0.118
	c-0.73,0-1.858-0.569-1.858-1.324v-0.621C27.447,42.995,27.674,42.253,28.636,42.199z M20.454,43.945
	c-0.299-0.224-0.47-0.636-0.528-1.16c-0.004-0.091-0.008-0.178-0.03-0.263c-0.005-0.214,0.006-0.441,0.038-0.684
	c0.289-1.945,1.542-2.84,1.943-3.127c0.487-0.323,0.903-0.41,1.093-0.4c0.028,0.008,0.243,0.102,0.536,0.759
	c-0.823,0.893-1.39,2.072-1.721,2.933c-0.104,0.264-0.428,1.183-0.438,2.286C21.03,44.248,20.706,44.139,20.454,43.945z
	 M16.801,40.266c-0.173-0.465,0.062-1.12,0.708-1.96c0.275-0.388,0.544-0.584,0.797-0.584c0.178,0,0.431,0.198,0.653,0.432
	c-0.658,0.857-1.107,1.875-1.304,2.955C17.248,40.869,16.924,40.584,16.801,40.266z M23.885,45.333
	c-0.548-0.792-0.103-2.118,0.044-2.565c0.387-0.966,0.963-1.93,1.543-2.399c0.046-0.031,0.089-0.062,0.133-0.101
	c0.181-0.121,0.36-0.198,0.534-0.198c0,0,0.002,0,0.004,0c0.298,0.036,0.521,0.15,0.696,0.289c-1.731,1.106-1.652,3.733-1.594,5.439
	v0.339C24.575,45.966,24.116,45.701,23.885,45.333z M32.22,42.823c-0.023-0.098-0.054-0.224-0.091-0.364
	c0.478,0.463,3.034,2.903,5.107,4.396c-0.002,0.062-0.007,0.119-0.03,0.167c-0.08,0.16-0.313,0.311-0.661,0.427
	c-0.014,0.004-0.049,0.011-0.11,0.011c-0.688,0-2.365-0.79-3.926-1.821C32.524,44.535,32.406,43.525,32.22,42.823z M49.251,35.422
	l-6.75-6.384c-0.095-0.093-0.264-0.263-0.481-0.263c-0.008,0-0.014,0-0.02,0.002c-5.162-1.219-6.432-4.079-7.07-5.524
	c-0.239-0.555-0.565-1.316-1.449-1.316c-0.216,0-0.504,0-0.645,0.243c-0.308,0.06-0.876,0.137-1.783,0.137h-0.228
	c-0.243,0-0.514,0-0.771,0.222c-0.078,0.045-0.183,0.12-0.351,0.237c-0.586,0.413-1.804,1.269-3.379,2.084
	c-0.36,0.166-0.711,0.254-1.014,0.254c-0.241,0-0.565-0.057-0.751-0.353c-0.124-0.163-0.131-0.457-0.038-0.697
	c2.014-3.97,4.534-6.067,7.29-6.067c0.952,0,1.65,0.267,1.65,0.267l9.392,4.166c0.252,0.126,0.54,0.156,0.973,0.005l12.132-5.737
	l5.358,12.078L49.251,35.422z"/>
</svg>
