<?xml version="1.0" encoding="utf-8"?>
<!-- Generator: Adobe Illustrator 16.0.0, SVG Export Plug-In . SVG Version: 6.00 Build 0)  -->
<!DOCTYPE svg PUBLIC "-//W3C//DTD SVG 1.1//EN" "http://www.w3.org/Graphics/SVG/1.1/DTD/svg11.dtd">
<svg version="1.1" id="Layer_1" xmlns="http://www.w3.org/2000/svg" xmlns:xlink="http://www.w3.org/1999/xlink" x="0px" y="0px"
	 width="64px" height="64px" viewBox="192 218 64 64" enable-background="new 192 218 64 64" xml:space="preserve">
<g>
	<g>
		<path d="M254.242,218h-15.059c-1.055,0-1.883,0.828-1.883,1.883v13.176h-13.176c-1.055,0-1.883,0.828-1.883,1.883v13.176h-13.176
			c-1.055,0-1.883,0.829-1.883,1.883v13.177h-13.176c-1.055,0-1.883,0.828-1.883,1.882v15.059c0,1.055,0.828,1.883,1.883,1.883
			h60.234c1.055,0,1.883-0.828,1.883-1.883v-60.234C256.125,218.828,255.297,218,254.242,218z M252.361,278.235H195.89v-11.294
			h13.177c1.054,0,1.883-0.828,1.883-1.883v-13.176h13.176c1.055,0,1.883-0.828,1.883-1.883v-13.177h13.176
			c1.055,0,1.883-0.828,1.883-1.882v-13.177h11.294V278.235z"/>
	</g>
	<g>
		<path d="M229.772,250c0,1.055,0.828,1.883,1.883,1.883h10.541l-19.426,19.35c-0.753,0.754-0.753,1.958,0,2.636
			c0.377,0.377,0.828,0.527,1.355,0.527s0.979-0.15,1.355-0.527l19.351-19.351v10.541c0,1.055,0.828,1.883,1.882,1.883
			c1.055,0,1.883-0.828,1.883-1.883V250c0-0.15,0-0.226,0-0.377c0-0.074,0-0.074-0.076-0.15c0-0.075,0-0.15-0.074-0.15
			c0-0.075-0.076-0.15-0.076-0.15c0-0.075-0.074-0.075-0.074-0.15c-0.151-0.227-0.302-0.377-0.527-0.527
			c-0.076,0-0.076-0.075-0.15-0.075c-0.076,0-0.15-0.075-0.227-0.075c-0.075,0-0.15-0.075-0.15-0.075
			c-0.075,0-0.075-0.075-0.15-0.075c-0.15,0-0.227,0-0.377,0h-15.059C230.6,248.117,229.772,248.946,229.772,250z"/>
	</g>
</g>
</svg>
