<?xml version="1.0" encoding="utf-8"?>
<!-- Generator: Adobe Illustrator 16.0.0, SVG Export Plug-In . SVG Version: 6.00 Build 0)  -->
<!DOCTYPE svg PUBLIC "-//W3C//DTD SVG 1.1//EN" "http://www.w3.org/Graphics/SVG/1.1/DTD/svg11.dtd">
<svg version="1.1" id="Layer_1" xmlns="http://www.w3.org/2000/svg" xmlns:xlink="http://www.w3.org/1999/xlink" x="0px" y="0px"
	 width="64px" height="64px" viewBox="192 218 64 64" enable-background="new 192 218 64 64" xml:space="preserve">
<g>
	<path d="M200.941,247.379h12.314c0.816,0,1.478-0.661,1.478-1.478v-16.389c0-0.816-0.661-1.478-1.478-1.478h-12.314
		c-0.816,0-1.477,0.661-1.477,1.478v16.389C199.465,246.718,200.125,247.379,200.941,247.379z M202.418,230.99h9.361v13.436h-9.361
		V230.99z"/>
	<path d="M221.815,230.99h10.773c0.814,0,1.477-0.661,1.477-1.477c0-0.816-0.662-1.478-1.477-1.478h-10.773
		c-0.816,0-1.477,0.661-1.477,1.478C220.338,230.328,220.998,230.99,221.815,230.99z"/>
	<path d="M221.815,239.183h10.773c0.814,0,1.477-0.66,1.477-1.477c0-0.815-0.662-1.477-1.477-1.477h-10.773
		c-0.816,0-1.477,0.661-1.477,1.477C220.338,238.523,220.998,239.183,221.815,239.183z"/>
	<path d="M221.815,247.382h10.773c0.814,0,1.477-0.661,1.477-1.477c0-0.816-0.662-1.478-1.477-1.478h-10.773
		c-0.816,0-1.477,0.661-1.477,1.478C220.338,246.721,220.998,247.382,221.815,247.382z"/>
	<path d="M221.082,252.623h-20.141c-0.816,0-1.477,0.66-1.477,1.477s0.66,1.479,1.477,1.479h20.141c0.816,0,1.479-0.662,1.479-1.479
		S221.899,252.623,221.082,252.623z"/>
	<path d="M221.082,260.822h-20.141c-0.816,0-1.477,0.662-1.477,1.477c0,0.816,0.66,1.479,1.477,1.479h20.141
		c0.816,0,1.479-0.662,1.479-1.479C222.561,261.484,221.899,260.822,221.082,260.822z"/>
	<path d="M221.082,269.017h-20.141c-0.816,0-1.477,0.66-1.477,1.477c0,0.814,0.66,1.477,1.477,1.477h20.141
		c0.816,0,1.479-0.662,1.479-1.477C222.561,269.677,221.899,269.017,221.082,269.017z"/>
	<path d="M256,263.558c0-8.066-6.434-14.652-14.469-15.002v-29.077c0-0.816-0.662-1.477-1.479-1.477h-46.576
		c-0.816,0-1.477,0.661-1.477,1.477v61.046c0,0.816,0.661,1.477,1.477,1.477h46.576c0.816,0,1.479-0.66,1.479-1.477v-1.963
		C249.567,278.213,256,271.627,256,263.558z M194.953,279.049v-58.093h43.623v27.757c-7.264,1.1-12.854,7.329-12.854,14.846
		c0,7.52,5.59,13.748,12.854,14.848v0.643H194.953z M240.862,275.642c-6.719,0-12.186-5.42-12.186-12.084
		c0-6.66,5.467-12.082,12.186-12.082s12.184,5.422,12.184,12.082C253.045,270.222,247.58,275.642,240.862,275.642z"/>
	<path d="M243.073,255.474c-2.018-1.236-4.934-0.115-5.26,0.018c-0.756,0.307-1.119,1.168-0.813,1.924s1.166,1.119,1.922,0.814
		c0.738-0.299,2.09-0.555,2.605-0.238c0.059,0.035,0.234,0.143,0.281,0.688c0.008,0.109,0.029,0.217,0.063,0.318
		c-0.027,0.18-0.197,0.842-1.217,2.111c-1.77,2.195-1.646,4.557-1.627,4.818c0.059,0.775,0.703,1.357,1.469,1.357
		c0.033,0,0.064-0.002,0.098-0.002c0.809-0.053,1.422-0.754,1.379-1.563c-0.004-0.059-0.064-1.461,0.982-2.76
		c1.967-2.447,2.041-3.951,1.77-4.773C244.526,256.666,243.725,255.875,243.073,255.474z"/>
	<path d="M240.465,268.271c-0.814,0-1.477,0.66-1.477,1.477v1c0,0.816,0.662,1.477,1.477,1.477c0.816,0,1.477-0.66,1.477-1.477v-1
		C241.942,268.931,241.281,268.271,240.465,268.271z"/>
</g>
</svg>
