<?xml version="1.0" encoding="utf-8"?>
<!-- Generator: Adobe Illustrator 16.0.0, SVG Export Plug-In . SVG Version: 6.00 Build 0)  -->
<!DOCTYPE svg PUBLIC "-//W3C//DTD SVG 1.1//EN" "http://www.w3.org/Graphics/SVG/1.1/DTD/svg11.dtd">
<svg version="1.1" id="Layer_1" xmlns="http://www.w3.org/2000/svg" xmlns:xlink="http://www.w3.org/1999/xlink" x="0px" y="0px"
	 width="64px" height="64px" viewBox="192 218 64 64" enable-background="new 192 218 64 64" xml:space="preserve">
<text transform="matrix(1 0 0 1 -65.9939 475.9939)" font-family="'Arial-BoldMT'" font-size="83.3333">Created by Kdesign</text>
<text transform="matrix(1 0 0 1 -65.9939 559.3376)" font-family="'Arial-BoldMT'" font-size="83.3333">from the Noun Project</text>
<g>
	<path d="M253.485,257.134c-1.93-4.297-5.416-7.583-9.816-9.253c-1.5-0.57-3.057-0.933-4.635-1.08l-1.58-13.35
		c-0.084-0.735-0.709-1.291-1.455-1.291h-4.939c-0.807,0-1.461,0.655-1.461,1.459c0,0.808,0.654,1.464,1.461,1.464h3.641
		l1.383,11.684c-5.348,0.39-10.141,3.139-13.196,7.583c-0.222,0.324-0.305,0.712-0.233,1.097c0.072,0.384,0.288,0.716,0.61,0.934
		c0.643,0.444,1.59,0.269,2.033-0.374c2.742-3.98,7.258-6.359,12.076-6.359l0.295,0.004h0.094h0.014
		c1.652,0.044,3.285,0.371,4.85,0.966c3.668,1.392,6.574,4.135,8.184,7.72s1.729,7.577,0.33,11.243
		c-1.398,3.678-4.141,6.587-7.719,8.191c-3.561,1.599-7.588,1.716-11.246,0.324c-6.592-2.506-10.484-9.354-9.254-16.284
		c0.067-0.386-0.021-0.773-0.247-1.097c-0.225-0.318-0.56-0.53-0.942-0.598c-0.808-0.136-1.558,0.405-1.695,1.187
		c-1.473,8.317,3.195,16.531,11.099,19.533c2.025,0.772,4.137,1.162,6.277,1.162c2.484,0,4.91-0.523,7.207-1.554
		c4.301-1.929,7.588-5.417,9.256-9.817C255.553,266.228,255.414,261.437,253.485,257.134z"/>
	<path d="M234.518,273.196h0.027h0.006c0.422-0.014,0.814-0.199,1.074-0.51l12.701-14.751c0.523-0.608,0.455-1.533-0.15-2.059
		c-0.582-0.515-1.557-0.445-2.068,0.146l-11.639,13.521l-5.811-6.187c-0.533-0.565-1.5-0.601-2.07-0.069
		c-0.285,0.268-0.449,0.631-0.461,1.022c-0.012,0.391,0.129,0.763,0.396,1.047l6.928,7.382
		C233.731,273.028,234.119,273.196,234.518,273.196z"/>
	<path d="M218.657,273.441h-22.614l3.792-38.357h7.328v2.282c-2.173,0.645-3.665,2.625-3.665,4.914c0,2.828,2.301,5.129,5.129,5.129
		s5.128-2.301,5.128-5.129c0-2.287-1.492-4.265-3.664-4.911v-9.693c0-3.72,3.026-6.746,6.745-6.746h1.648
		c3.719,0,6.745,3.026,6.745,6.746v4.481h-11.877c-0.808,0-1.464,0.655-1.464,1.458c0,0.808,0.656,1.465,1.464,1.465h11.877v2.283
		c-2.171,0.645-3.664,2.624-3.664,4.91c0,2.828,2.301,5.128,5.129,5.128c2.828,0,5.131-2.301,5.131-5.128
		c0-2.287-1.494-4.265-3.666-4.91v-9.688c0-5.335-4.341-9.676-9.675-9.676h-1.648c-5.334,0-9.674,4.34-9.674,9.676v4.481h-8.656
		c-0.756,0-1.38,0.568-1.453,1.319l-4.086,41.282c-0.044,0.411,0.092,0.822,0.373,1.131c0.28,0.306,0.676,0.481,1.086,0.481h24.23
		c0.808,0,1.465-0.659,1.465-1.468C220.123,274.097,219.466,273.441,218.657,273.441z M208.628,244.479
		c-1.215,0-2.203-0.986-2.203-2.2c0-0.663,0.307-1.289,0.812-1.704c0.192,0.584,0.743,1.007,1.391,1.007
		c0.648,0,1.2-0.424,1.392-1.01c0.507,0.412,0.807,1.03,0.807,1.707C210.826,243.493,209.84,244.479,208.628,244.479z
		 M226.696,244.479c-1.215,0-2.202-0.986-2.202-2.2c0-0.663,0.307-1.289,0.811-1.704c0.193,0.584,0.742,1.007,1.391,1.007
		s1.199-0.424,1.391-1.01c0.51,0.412,0.811,1.03,0.811,1.707C228.897,243.493,227.908,244.479,226.696,244.479z"/>
</g>
</svg>
