<?xml version="1.0" encoding="utf-8"?>
<!-- Generator: Adobe Illustrator 16.0.0, SVG Export Plug-In . SVG Version: 6.00 Build 0)  -->
<!DOCTYPE svg PUBLIC "-//W3C//DTD SVG 1.1//EN" "http://www.w3.org/Graphics/SVG/1.1/DTD/svg11.dtd">
<svg version="1.1" id="Layer_1" xmlns="http://www.w3.org/2000/svg" xmlns:xlink="http://www.w3.org/1999/xlink" x="0px" y="0px"
	 width="64px" height="64px" viewBox="192 218 64 64" enable-background="new 192 218 64 64" xml:space="preserve">
<g>
	<path d="M216.684,264.636c0.909,0,1.716-0.807,1.716-1.716v-2.423h0.101c0,0,0,0,0.101,0c0,0,0,0,0.101,0
		c3.332,0,6.057-2.726,6.057-6.057s-2.726-6.057-6.057-6.057h-0.202v-5.148l0,0h3.23c0.909,0,1.716-0.808,1.716-1.716
		s-0.808-1.716-1.716-1.716h-3.23v-2.423c0-0.908-0.808-1.716-1.716-1.716c-0.908,0-1.716,0.808-1.716,1.716v2.423h-0.202
		c-3.332,0-6.057,2.726-6.057,6.057s2.726,6.057,6.057,6.057h0.202v5.048v0.101h-3.432c-0.909,0-1.716,0.808-1.716,1.716
		s0.808,1.716,1.716,1.716h3.432v2.423C214.968,263.83,215.776,264.636,216.684,264.636z M218.501,256.864v-5.047h0.202
		c1.414,0,2.625,1.211,2.625,2.624s-1.211,2.625-2.625,2.625c0,0,0,0-0.101,0c0,0,0,0-0.101,0H218.4v-0.202H218.501z
		 M214.766,248.284c-1.413,0-2.625-1.212-2.625-2.625s1.211-2.625,2.625-2.625h0.202l0,0v5.148h-0.202V248.284z M232.836,235.362
		h6.763v34.625c0,0.908,0.808,1.716,1.716,1.716s1.717-0.808,1.717-1.716v-36.341c0-0.101,0-0.202,0-0.403l0,0
		c0-0.102-0.102-0.303-0.202-0.404v-0.101c-0.101-0.101-0.202-0.303-0.303-0.404l0,0l-14.536-14.031l0,0
		c-0.102-0.101-0.202-0.202-0.303-0.202h-0.102C227.485,218,227.283,218,227.183,218c0,0,0,0-0.101,0c-0.102,0-0.203,0-0.304,0
		h-26.649c-4.341,0-7.773,3.533-7.773,7.772v48.253c0,4.341,3.533,7.772,7.773,7.772h30.688c0.908,0,1.716-0.808,1.716-1.716
		s-0.808-1.716-1.716-1.716h-30.688c-2.423,0-4.341-1.918-4.341-4.341v-48.253c0-2.422,1.918-4.34,4.341-4.34h24.934v6.157
		C225.063,231.93,228.494,235.362,232.836,235.362z M228.494,223.754l8.48,8.177h-4.139c-2.424,0-4.342-1.918-4.342-4.341V223.754
		L228.494,223.754z M255.448,268.472l-13.021,13.022c-0.303,0.303-0.809,0.505-1.212,0.505s-0.909-0.202-1.212-0.505l-6.157-6.157
		c-0.706-0.707-0.706-1.817,0-2.423c0.706-0.707,1.817-0.707,2.423,0l4.946,4.946l11.811-11.811c0.706-0.707,1.817-0.707,2.423,0
		C256.155,266.757,256.155,267.867,255.448,268.472z"/>
</g>
</svg>
