<?xml version="1.0" encoding="utf-8"?>
<!-- Generator: Adobe Illustrator 16.0.0, SVG Export Plug-In . SVG Version: 6.00 Build 0)  -->
<!DOCTYPE svg PUBLIC "-//W3C//DTD SVG 1.1//EN" "http://www.w3.org/Graphics/SVG/1.1/DTD/svg11.dtd">
<svg version="1.1" id="Layer_1" xmlns="http://www.w3.org/2000/svg" xmlns:xlink="http://www.w3.org/1999/xlink" x="0px" y="0px"
	 width="64px" height="64px" viewBox="192 218 64 64" enable-background="new 192 218 64 64" xml:space="preserve">
<path d="M244.549,258.825c-3.901,0-7.522,1.933-9.715,5.176l-20.067-10.032c0.438-1.256,0.661-2.548,0.661-3.841
	c0-1.293-0.223-2.585-0.661-3.841l20.067-10.033c2.193,3.244,5.814,5.176,9.715,5.176c6.466,0,11.727-5.26,11.727-11.726
	c0-6.466-5.261-11.727-11.727-11.727c-6.467,0-11.728,5.26-11.728,11.726c0,1.292,0.223,2.583,0.661,3.84l-20.067,10.033
	c-2.192-3.243-5.814-5.174-9.714-5.174c-6.466,0-11.727,5.26-11.727,11.726c0,6.465,5.261,11.726,11.727,11.726
	c3.899,0,7.521-1.932,9.714-5.175l20.067,10.033c-0.438,1.259-0.661,2.549-0.661,3.84c0,6.466,5.261,11.727,11.728,11.727
	c6.465,0,11.726-5.261,11.726-11.727S251.014,258.825,244.549,258.825z M244.549,279.249c-4.797,0-8.698-3.902-8.698-8.698
	s3.901-8.698,8.698-8.698c4.796,0,8.697,3.902,8.697,8.698S249.345,279.249,244.549,279.249z M244.549,221.006
	c4.796,0,8.697,3.902,8.697,8.698s-3.901,8.698-8.697,8.698c-4.797,0-8.698-3.902-8.698-8.698S239.752,221.006,244.549,221.006z
	 M203.701,258.825c-4.796,0-8.697-3.901-8.697-8.697s3.901-8.698,8.697-8.698s8.697,3.902,8.697,8.698
	S208.497,258.825,203.701,258.825z"/>
</svg>
