<?xml version="1.0" encoding="utf-8"?>
<!-- Generator: Adobe Illustrator 16.0.0, SVG Export Plug-In . SVG Version: 6.00 Build 0)  -->
<!DOCTYPE svg PUBLIC "-//W3C//DTD SVG 1.1//EN" "http://www.w3.org/Graphics/SVG/1.1/DTD/svg11.dtd">
<svg version="1.1" id="Layer_1" xmlns="http://www.w3.org/2000/svg" xmlns:xlink="http://www.w3.org/1999/xlink" x="0px" y="0px"
	 width="64px" height="64px" viewBox="192 218 64 64" enable-background="new 192 218 64 64" xml:space="preserve">
<g>
	<path d="M256,245.89v-0.002c0-0.004-0.001-0.01-0.001-0.014c-0.001-0.027-0.006-0.055-0.008-0.082
		c-0.003-0.047-0.005-0.092-0.013-0.137c-0.003-0.02-0.004-0.041-0.008-0.063c-0.006-0.031-0.019-0.061-0.027-0.09
		c-0.011-0.045-0.022-0.086-0.037-0.129c-0.008-0.02-0.013-0.041-0.021-0.063c-0.012-0.029-0.029-0.055-0.043-0.082
		c-0.021-0.043-0.042-0.084-0.066-0.125c-0.012-0.016-0.018-0.035-0.028-0.051c-0.001-0.002-0.001-0.002-0.001-0.002
		c-0.018-0.025-0.04-0.047-0.059-0.07c-0.027-0.037-0.057-0.072-0.088-0.107c-0.015-0.016-0.025-0.033-0.041-0.049
		c-0.025-0.025-0.057-0.047-0.085-0.07c-0.02-0.018-0.034-0.037-0.055-0.053l-8.833-6.842V219.5c0-0.828-0.672-1.5-1.5-1.5h-42.17
		c-0.829,0-1.5,0.672-1.5,1.5v18.361l-8.834,6.842c-0.02,0.016-0.034,0.035-0.052,0.051c-0.03,0.025-0.061,0.047-0.089,0.074
		c-0.015,0.014-0.025,0.031-0.039,0.047c-0.032,0.035-0.061,0.07-0.089,0.107c-0.018,0.023-0.04,0.045-0.057,0.068
		c0,0.002-0.001,0.002-0.001,0.002c-0.012,0.018-0.018,0.037-0.028,0.053c-0.025,0.041-0.046,0.082-0.067,0.125
		c-0.014,0.027-0.031,0.053-0.043,0.082c-0.009,0.021-0.013,0.043-0.021,0.063c-0.015,0.043-0.027,0.084-0.038,0.129
		c-0.008,0.029-0.021,0.059-0.027,0.09c-0.004,0.021-0.005,0.043-0.008,0.063c-0.007,0.045-0.01,0.09-0.013,0.137
		c-0.002,0.027-0.007,0.055-0.008,0.082c0,0.004-0.001,0.01-0.001,0.014v0.002c0,0.002,0,0.004,0,0.004V280.5
		c0,0.828,0.671,1.5,1.5,1.5h61c0.829,0,1.5-0.672,1.5-1.5v-34.604C256,245.896,256,245.892,256,245.89z M251.938,245.801
		l-5.352,3.584v-7.729L251.938,245.801z M243.586,221v30.392l-19.585,13.113l-19.585-13.113V221H243.586z M201.416,249.385
		l-5.352-3.584l5.352-4.145V249.385z M195.001,279v-30.301l6.804,4.555c0.165,0.184,0.373,0.324,0.61,0.41l20.751,13.895
		c0.253,0.168,0.544,0.254,0.835,0.254s0.582-0.086,0.834-0.254l20.751-13.895c0.237-0.086,0.446-0.227,0.611-0.41l6.803-4.555V279
		H195.001z"/>
	<rect x="211.536" y="226.09" width="24.93" height="3"/>
	<rect x="211.536" y="234.312" width="24.93" height="3"/>
	<rect x="211.536" y="242.666" width="24.93" height="3"/>
	<rect x="211.536" y="251.019" width="24.93" height="3"/>
</g>
</svg>
