<?xml version="1.0" encoding="utf-8"?>
<!-- Generator: Adobe Illustrator 16.0.0, SVG Export Plug-In . SVG Version: 6.00 Build 0)  -->
<!DOCTYPE svg PUBLIC "-//W3C//DTD SVG 1.1//EN" "http://www.w3.org/Graphics/SVG/1.1/DTD/svg11.dtd">
<svg version="1.1" id="Layer_1" xmlns="http://www.w3.org/2000/svg" xmlns:xlink="http://www.w3.org/1999/xlink" x="0px" y="0px"
	 width="64px" height="64px" viewBox="192 218 64 64" enable-background="new 192 218 64 64" xml:space="preserve">
<g>
	<g>
		<path d="M246.633,225.132v-0.761c0-3.519-2.758-6.372-6.086-6.372h-38.799c-3.33,0-6.086,2.853-6.086,6.372v45.361
			c0,3.328,2.473,6.086,5.705,6.371c0.096,3.234,2.758,5.896,6.086,5.896h36.137c4.85,0,8.748-3.898,8.748-8.749v-42.033
			C252.338,227.985,249.772,225.323,246.633,225.132z M249.961,273.156c0,3.519-2.854,6.371-6.371,6.371h-36.137
			c-1.996,0-3.613-1.521-3.709-3.518h36.803c3.328,0,6.086-2.854,6.086-6.373V227.51c1.807,0.19,3.328,1.807,3.328,3.708V273.156
			L249.961,273.156z M198.039,224.371c0-2.188,1.617-3.994,3.709-3.994h38.799c1.996,0,3.709,1.807,3.709,3.994v0.761v1.141v1.141
			v42.222c0,2.188-1.617,3.994-3.709,3.994h-36.803h-1.141h-0.76c-0.096,0-0.287,0-0.381,0c-1.807-0.189-3.328-1.901-3.328-3.898
			v-45.361H198.039z"/>
	</g>
	<g>
		<path d="M201.367,238.635c0.096,0,0.096,0,0.189,0h1.047h1.141h10.557v29.005c0,0.665,0.57,1.141,1.141,1.141h11.412
			c0.666,0,1.141-0.57,1.141-1.141v-28.91h12.838l0,0c0.666,0,1.141-0.57,1.141-1.141c0-0.285-0.094-0.476-0.189-0.666l-1.807-4.184
			c-0.191-0.38-0.475-0.666-0.855-0.666c0,0-2.854-0.57-5.041-1.426c-2.854-1.141-4.564-2.282-5.42-3.043
			c-0.666-0.57-0.951-0.855-0.951-0.855l-0.096-0.095l-0.094-0.095l-0.096-0.095c0,0-0.096,0-0.096-0.095c0,0-0.096,0-0.096-0.095
			c-0.094-0.095-0.285-0.095-0.379-0.095l0,0h-11.318c-0.094,0-0.188,0-0.283,0.095h-0.096c-0.096,0-0.189,0.095-0.285,0.095
			s-0.096,0.095-0.191,0.19l-0.094,0.095c0,0,0,0-0.096,0.095c-0.096,0.095-0.381,0.38-0.855,0.855
			c-0.951,0.761-2.662,1.998-5.42,3.043c-1.617,0.666-3.52,1.142-4.471,1.332c-0.285,0.095-0.57,0.095-0.57,0.095
			c-0.285,0-0.475,0.19-0.666,0.381c-0.094,0.095-0.189,0.19-0.189,0.285l-0.951,2.187l-0.951,2.188
			c-0.189,0.381-0.096,0.761,0.096,1.142C200.701,238.446,200.987,238.635,201.367,238.635z M225.617,266.499h-8.939v-28.814
			c0-0.095,0-0.095,0-0.19v-9.035h8.844v16.072h-2.473c-0.666,0-1.141,0.57-1.141,1.141c0,0.666,0.57,1.142,1.141,1.142h2.568v3.232
			h-2.568c-0.666,0-1.141,0.571-1.141,1.142c0,0.665,0.57,1.142,1.141,1.142h2.568v3.232h-2.568c-0.666,0-1.141,0.571-1.141,1.143
			c0,0.665,0.57,1.141,1.141,1.141h2.568V266.499z M233.225,232.74c1.807,0.666,3.803,1.236,4.85,1.426l0.951,2.092h-11.031v-6.276
			C229.135,230.838,230.846,231.789,233.225,232.74z M203.744,235.402l0.477-1.236c1.045-0.19,3.043-0.666,4.85-1.426
			c2.377-0.951,4.09-1.997,5.23-2.758v6.372h-10.557h-0.381L203.744,235.402z"/>
	</g>
	<g>
		<circle cx="221.149" cy="233.405" r="1.807"/>
	</g>
	<g>
		<path d="M239.121,253.185h-6.088c-0.664,0-1.141,0.57-1.141,1.141c0,0.666,0.572,1.142,1.141,1.142h6.088
			c0.664,0,1.141-0.57,1.141-1.142C240.358,253.756,239.785,253.185,239.121,253.185z"/>
	</g>
	<g>
		<path d="M239.121,259.367h-6.088c-0.664,0-1.141,0.57-1.141,1.141c0,0.666,0.572,1.142,1.141,1.142h6.088
			c0.664,0,1.141-0.571,1.141-1.142C240.358,259.842,239.785,259.367,239.121,259.367z"/>
	</g>
	<g>
		<path d="M239.121,265.453h-6.088c-0.664,0-1.141,0.57-1.141,1.141c0,0.666,0.572,1.142,1.141,1.142h6.088
			c0.664,0,1.141-0.57,1.141-1.142C240.358,266.023,239.785,265.453,239.121,265.453z"/>
	</g>
</g>
</svg>
