<?xml version="1.0" encoding="utf-8"?>
<!-- Generator: Adobe Illustrator 16.0.0, SVG Export Plug-In . SVG Version: 6.00 Build 0)  -->
<!DOCTYPE svg PUBLIC "-//W3C//DTD SVG 1.1//EN" "http://www.w3.org/Graphics/SVG/1.1/DTD/svg11.dtd">
<svg version="1.1" id="Layer_1" xmlns="http://www.w3.org/2000/svg" xmlns:xlink="http://www.w3.org/1999/xlink" x="0px" y="0px"
	 width="64px" height="64px" viewBox="192 218 64 64" enable-background="new 192 218 64 64" xml:space="preserve">
<g>
	<path d="M256.084,250c0-17.646-14.354-32-32-32c-17.645,0-32,14.354-32,32c0,9.595,4.239,18.551,11.635,24.662l-0.008,0.011
		l0.384,0.308l0.384,0.308l0.006-0.008c5.655,4.395,12.419,6.72,19.599,6.72c7.182,0,13.946-2.326,19.602-6.723l0.007,0.008
		l0.384-0.308l0.385-0.309l-0.009-0.011C251.847,268.549,256.084,259.594,256.084,250z M195.102,250
		c0-15.981,13.001-28.983,28.982-28.983c15.98,0,28.981,13.002,28.981,28.983c0,3.203-0.527,6.327-1.521,9.275
		c-2.135-1.405-4.635-2.176-7.227-2.176c-3.264,0-6.366,1.204-8.786,3.379c-3.312-2.139-7.245-3.364-11.445-3.364
		c-4.202,0-8.138,1.227-11.45,3.367c-2.419-2.177-5.516-3.382-8.787-3.382c-2.59,0-5.091,0.771-7.225,2.176
		C195.63,256.328,195.102,253.204,195.102,250z M204.264,271.123c-2.756-2.582-4.949-5.629-6.496-8.979
		c1.747-1.313,3.875-2.026,6.082-2.026c2.327,0,4.543,0.785,6.336,2.225C207.544,264.665,205.485,267.658,204.264,271.123z
		 M224.084,278.982c-6.326,0-12.285-2.01-17.319-5.781c2.207-7.738,9.188-13.068,17.321-13.068c8.133,0,15.112,5.328,17.32,13.066
		C236.372,276.971,230.412,278.982,224.084,278.982z M243.907,271.119c-1.222-3.462-3.28-6.454-5.921-8.777
		c1.794-1.438,4.011-2.225,6.331-2.225c2.208,0,4.335,0.715,6.082,2.027C248.854,265.493,246.661,268.538,243.907,271.119z"/>
	<path d="M211.722,249.195c0-4.341-3.532-7.873-7.873-7.873s-7.873,3.532-7.873,7.873s3.532,7.874,7.873,7.874
		S211.722,253.536,211.722,249.195z M198.995,249.194c0-2.678,2.178-4.855,4.854-4.855c2.678,0,4.855,2.178,4.855,4.855
		c0,2.678-2.178,4.856-4.855,4.856C201.173,254.05,198.995,251.872,198.995,249.194z"/>
	<path d="M244.318,257.068c4.341,0,7.872-3.532,7.872-7.874s-3.531-7.873-7.872-7.873s-7.873,3.532-7.873,7.873
		S239.977,257.068,244.318,257.068z M244.318,244.338c2.677,0,4.855,2.178,4.855,4.855c0,2.678-2.179,4.856-4.855,4.856
		s-4.854-2.178-4.854-4.856C239.463,246.516,241.641,244.338,244.318,244.338z"/>
	<path d="M224.086,257.082c6.714,0,12.175-5.462,12.175-12.176c0-6.713-5.461-12.175-12.175-12.175
		c-6.713,0-12.175,5.462-12.175,12.175C211.911,251.62,217.373,257.082,224.086,257.082z M224.086,235.748
		c5.05,0,9.158,4.107,9.158,9.158c0,5.051-4.108,9.16-9.158,9.16s-9.158-4.109-9.158-9.16
		C214.928,239.855,219.036,235.748,224.086,235.748z"/>
</g>
</svg>
