<?xml version="1.0" encoding="utf-8"?>
<!-- Generator: Adobe Illustrator 16.0.0, SVG Export Plug-In . SVG Version: 6.00 Build 0)  -->
<!DOCTYPE svg PUBLIC "-//W3C//DTD SVG 1.1//EN" "http://www.w3.org/Graphics/SVG/1.1/DTD/svg11.dtd">
<svg version="1.1" id="Layer_1" xmlns="http://www.w3.org/2000/svg" xmlns:xlink="http://www.w3.org/1999/xlink" x="0px" y="0px"
	 width="64px" height="64px" viewBox="192 218 64 64" enable-background="new 192 218 64 64" xml:space="preserve">
<g>
	<path d="M224,218c-8.533,0-16.569,3.342-22.613,9.387C195.342,233.431,192,241.467,192,250c0,0.996,0.782,1.778,1.777,1.778
		c0.996,0,1.778-0.782,1.778-1.778c0-7.609,2.986-14.72,8.32-20.125c5.404-5.333,12.516-8.32,20.124-8.32s14.72,2.986,20.124,8.32
		c5.334,5.405,8.32,12.516,8.32,20.125s-2.986,14.72-8.32,20.125c-5.404,5.334-12.516,8.32-20.124,8.32
		c-6.969,0-13.582-2.489-18.845-7.111l3.343-3.342c0.427-0.428,0.64-1.139,0.427-1.707c-0.143-0.641-0.641-1.066-1.28-1.28
		l-12.587-3.343c-0.64-0.142-1.28,0-1.707,0.428c-0.426,0.426-0.64,1.137-0.426,1.707l3.342,12.656
		c0.143,0.641,0.64,1.067,1.28,1.281c0.142,0.07,0.284,0.07,0.427,0.07c0.497,0,0.924-0.213,1.279-0.498l3.414-3.412
		C208.57,279.085,216.035,282,224,282c8.533,0,16.568-3.342,22.613-9.387C252.657,266.569,256,258.533,256,250
		c0-8.533-3.343-16.569-9.387-22.613C240.569,221.343,232.533,218,224,218z M198.898,272.543l-1.777-6.685l6.685,1.778
		L198.898,272.543z"/>
	<path d="M216.462,264.863c0.285,0,0.641-0.072,0.925-0.214l22.685-13.085c0.568-0.283,0.924-0.924,0.924-1.564
		s-0.355-1.209-0.924-1.564l-22.756-13.084c-0.568-0.284-1.209-0.284-1.777,0c-0.569,0.285-0.925,0.924-0.925,1.564v26.169
		c0,0.64,0.355,1.209,0.925,1.564C215.823,264.791,216.107,264.863,216.462,264.863z M218.24,239.974L235.591,250l-17.351,10.027
		V239.974z"/>
</g>
</svg>
