<?xml version="1.0" encoding="utf-8"?>
<!-- Generator: Adobe Illustrator 16.0.0, SVG Export Plug-In . SVG Version: 6.00 Build 0)  -->
<!DOCTYPE svg PUBLIC "-//W3C//DTD SVG 1.1//EN" "http://www.w3.org/Graphics/SVG/1.1/DTD/svg11.dtd">
<svg version="1.1" id="Layer_1" xmlns="http://www.w3.org/2000/svg" xmlns:xlink="http://www.w3.org/1999/xlink" x="0px" y="0px"
	 width="64px" height="64px" viewBox="192 218 64 64" enable-background="new 192 218 64 64" xml:space="preserve">
<g>
	<path d="M245.982,262.804c-2.462-1.84-5.511-3.154-9.32-4.02c-0.505-0.115-1.022-0.223-1.553-0.318
		c0.121-0.141,0.242-0.281,0.36-0.424c3.368-4.039,5.3-8.978,5.3-13.548c0-0.142,0.016-1.141,0.037-2.404l0.013-0.853
		c0.04-2.576,0.092-5.979,0.107-8.036l-0.115-2.658c-1.174-7.971-7.249-12.543-16.67-12.543c-4.671,0-8.481,1.111-11.327,3.301
		c-3.055,2.353-4.813,5.795-5.225,10.233c-0.057,0.612-0.076,12.839-0.076,12.96c0,4.578,1.922,9.515,5.275,13.548
		c0.094,0.113,0.188,0.225,0.284,0.334c-0.674,0.121-1.343,0.256-2,0.408c-3.735,0.867-6.73,2.184-9.156,4.025
		c-4.89,3.713-7.266,9.494-7.266,17.676c0,0.834,0.678,1.512,1.512,1.512c0.833,0,1.512-0.678,1.512-1.512
		c0-3.686,0.5-6.717,1.529-9.266c1.002-2.48,2.487-4.443,4.541-6.002c2.519-1.912,5.89-3.201,10.295-3.934l1.501,6.002
		c0.121,0.484,0.473,0.879,0.945,1.053c0.172,0.063,0.348,0.094,0.522,0.094c0.286,0,0.696-0.086,0.964-0.275l2.377-1.633v2.48
		h0.321l-1.351,11.211c-0.102,0.838,0.502,1.629,1.309,1.727l0.193,0.035c0.732,0,1.405-0.641,1.499-1.426l1.392-11.547h0.633
		l1.258,11.543c0.091,0.838,0.862,1.473,1.666,1.389c0.385-0.041,0.737-0.238,0.99-0.557c0.268-0.332,0.394-0.76,0.348-1.174
		l-1.224-11.201h0.457v-2.514l2.349,1.664c0.402,0.287,0.94,0.355,1.396,0.184c0.47-0.174,0.822-0.566,0.942-1.051l1.488-5.947
		c0.671,0.113,1.334,0.246,1.974,0.391c3.39,0.771,6.066,1.914,8.186,3.494c2.087,1.559,3.595,3.521,4.608,6
		c1.037,2.543,1.542,5.572,1.542,9.26c0,0.834,0.679,1.514,1.512,1.514c0.834,0,1.513-0.68,1.513-1.514
		C253.35,272.289,250.94,266.506,245.982,262.804z M230.131,264.41l-1.426-1.012c0.502-0.227,1.005-0.486,1.503-0.781
		c0.146-0.086,0.292-0.176,0.438-0.27L230.131,264.41z M218.049,262.617c0.457,0.27,0.922,0.514,1.389,0.729l-1.501,1.063
		l-0.551-2.203C217.609,262.351,217.83,262.488,218.049,262.617z M231.786,222.522c0.698,0.329,1.34,0.709,1.921,1.141
		c0.303,0.225,0.59,0.464,0.861,0.717c1.896,1.768,3.018,4.209,3.333,7.261c0.007,0.113,0.009,0.443,0.006,0.925
		c-2.378,2.21-5.344,3.376-8.585,3.376c-4.333,0-8.938-2.048-12.542-5.493c-0.273-0.261-0.555-0.511-0.814-0.788l-1.279-1.359
		h-0.001h-0.001l-1.063,1.534c-0.853,1.23-1.873,2.339-3.041,3.3c0.007-0.721,0.014-1.211,0.02-1.33
		c0.334-3.563,1.699-6.291,4.059-8.106c2.304-1.775,5.494-2.675,9.481-2.675C227.093,221.024,229.692,221.537,231.786,222.522z
		 M210.561,236.879c1.681-1.064,3.18-2.376,4.463-3.902c4.144,3.812,9.332,5.989,14.3,5.989c3.089,0,6.026-0.872,8.542-2.528
		c-0.021,1.531-0.047,3.168-0.067,4.5l-0.018,1.073c-0.024,1.526-0.036,2.33-0.036,2.483c0,1.966-0.429,4.016-1.272,6.093
		c-0.797,1.955-1.947,3.865-3.327,5.521c-2.775,3.328-6.14,5.316-9.004,5.316c-2.886,0-6.261-1.988-9.026-5.316
		c-1.376-1.654-2.521-3.564-3.312-5.518c-0.839-2.078-1.265-4.128-1.265-6.097C210.538,244.172,210.546,240.27,210.561,236.879z
		 M224.817,264.541v1.441h-1.444v-1.441H224.817z"/>
	<path d="M224.042,254.045l2.393,0.072h0.028c1.229,0,2.121-1.037,2.121-2.465l-2.252-10.114c-0.193-0.813-0.963-1.31-1.755-1.118
		c-0.395,0.095-0.724,0.344-0.927,0.701c-0.195,0.346-0.251,0.752-0.157,1.143l2.123,8.83h-1.544c-0.835,0-1.498,0.639-1.511,1.451
		C222.548,253.373,223.202,254.031,224.042,254.045z"/>
</g>
</svg>
