<?xml version="1.0" encoding="utf-8"?>
<!-- Generator: Adobe Illustrator 16.0.0, SVG Export Plug-In . SVG Version: 6.00 Build 0)  -->
<!DOCTYPE svg PUBLIC "-//W3C//DTD SVG 1.1//EN" "http://www.w3.org/Graphics/SVG/1.1/DTD/svg11.dtd">
<svg version="1.1" id="Layer_1" xmlns="http://www.w3.org/2000/svg" xmlns:xlink="http://www.w3.org/1999/xlink" x="0px" y="0px"
	 width="64px" height="64px" viewBox="192 218 64 64" enable-background="new 192 218 64 64" xml:space="preserve">
<path d="M250.276,222.478c-0.155-0.156-0.363-0.242-0.584-0.242h-1.814l0.2-0.202c0.224-0.221,0.346-0.516,0.346-0.829
	c0-0.313-0.122-0.609-0.344-0.83c-0.441-0.443-1.213-0.442-1.657-0.001l-0.204,0.205v-1.818c0-0.454-0.369-0.824-0.824-0.824
	c-0.453,0-0.822,0.37-0.822,0.824v3.465l-0.788,0.789v-1.809c0-0.455-0.37-0.824-0.825-0.824c-0.453,0-0.822,0.37-0.822,0.824v3.456
	l-2.328,2.329c-4.691-4.279-10.73-6.634-17.021-6.634c-13.951,0-25.3,11.349-25.3,25.299c0,9.428,5.203,18.001,13.587,22.402
	l-4.757,11.787c-0.153,0.377-0.149,0.79,0.01,1.165c0.16,0.374,0.457,0.665,0.834,0.815c0.178,0.074,0.369,0.111,0.568,0.111
	c0.625,0,1.179-0.374,1.413-0.952l4.714-11.685c2.365,0.894,4.855,1.424,7.408,1.577v5.345c0,0.84,0.684,1.522,1.523,1.522
	c0.838,0,1.52-0.683,1.52-1.522v-5.345c2.552-0.153,5.044-0.684,7.411-1.577l4.718,11.684c0.229,0.578,0.784,0.953,1.411,0.953
	c0.2,0,0.391-0.037,0.569-0.11c0.378-0.152,0.674-0.443,0.833-0.817c0.159-0.375,0.162-0.788,0.01-1.164l-4.759-11.787
	c8.384-4.402,13.586-12.976,13.586-22.402c0-6.288-2.353-12.322-6.625-17.005l2.325-2.323l3.47-0.002
	c0.453,0,0.822-0.37,0.822-0.823c0-0.453-0.369-0.823-0.822-0.823h-1.826l0.798-0.798h3.463c0.453,0,0.823-0.37,0.823-0.823
	C250.515,222.841,250.429,222.634,250.276,222.478z M222.786,223.403c5.481,0,10.756,2.039,14.865,5.743l-4.011,4.009
	c-3.026-2.63-6.878-4.078-10.854-4.078c-9.142,0-16.58,7.437-16.58,16.579c0,9.145,7.438,16.583,16.58,16.583
	c9.145,0,16.584-7.438,16.584-16.583c0-3.971-1.445-7.816-4.069-10.842l4.008-4.01c3.696,4.108,5.731,9.377,5.731,14.852
	c0,12.272-9.983,22.257-22.254,22.257c-12.272,0-22.256-9.984-22.256-22.257C200.53,233.385,210.514,223.403,222.786,223.403z
	 M221.957,244.842c-0.457,0.456-0.457,1.2-0.001,1.658c0.219,0.222,0.513,0.345,0.83,0.345c0.313,0,0.607-0.123,0.828-0.345
	l1.777-1.778c0.113,0.308,0.17,0.626,0.17,0.947c0,1.556-1.265,2.82-2.82,2.82c-1.551,0-2.813-1.265-2.813-2.82
	c0-1.552,1.262-2.816,2.813-2.816c0.331,0,0.667,0.067,1.001,0.198L221.957,244.842z M222.786,259.193
	c-7.463,0-13.535-6.073-13.535-13.537c0-7.463,6.072-13.535,13.535-13.535c3.17,0,6.162,1.114,8.664,3.224l-5.455,5.458
	c-0.969-0.652-2.092-0.996-3.253-0.996c-3.23,0-5.858,2.63-5.858,5.863c0,3.233,2.628,5.865,5.858,5.865
	c3.234,0,5.865-2.632,5.865-5.865c0-1.138-0.331-2.243-0.958-3.203l5.462-5.462c2.104,2.499,3.216,5.488,3.216,8.652
	C236.326,253.12,230.252,259.193,222.786,259.193z"/>
</svg>
