<?xml version="1.0" encoding="utf-8"?>
<!-- Generator: Adobe Illustrator 16.0.0, SVG Export Plug-In . SVG Version: 6.00 Build 0)  -->
<!DOCTYPE svg PUBLIC "-//W3C//DTD SVG 1.1//EN" "http://www.w3.org/Graphics/SVG/1.1/DTD/svg11.dtd">
<svg version="1.1" id="Layer_1" xmlns="http://www.w3.org/2000/svg" xmlns:xlink="http://www.w3.org/1999/xlink" x="0px" y="0px"
	 width="64px" height="64px" viewBox="192 218 64 64" enable-background="new 192 218 64 64" xml:space="preserve">
<g>
	<g>
		<g>
			<g>
				<g>
					<g>
						<g>
							<path d="M216.304,222.42c2.479-0.826,1.404-4.876-1.076-3.968c-10.91,3.72-19.672,13.391-22.398,24.632
								c-4.877,20.003,12.48,39.923,32.815,38.683c9.422-0.578,18.266-5.62,23.971-13.142c6.529-8.597,7.852-19.342,4.875-29.591
								c-0.082-0.166-0.164-0.331-0.248-0.496c-0.33-0.579-0.908-1.074-1.734-1.074c-9.672,0-19.342,0-29.014,0
								c-0.908,0-1.486,0.661-1.486,0.661c-0.332,0.33-0.58,0.826-0.58,1.405c0,6.033,0,11.984,0,18.019
								c-2.066-2.066-4.049-4.05-6.115-6.116c-1.902-1.901-4.795,1.074-2.893,2.893c3.223,3.224,6.447,6.447,9.752,9.753
								c0.414,0.414,0.992,0.662,1.488,0.579c0.496,0,0.993-0.165,1.489-0.579c3.141-3.141,6.363-6.364,9.506-9.505
								c1.9-1.901-1.076-4.794-2.895-2.893c-2.066,2.065-4.049,4.05-6.115,6.116c0-5.373,0-10.745,0-16.2c8.43,0,16.861,0,25.293,0
								c2.645,10.91-0.414,22.151-9.342,29.508c-8.596,7.025-20.581,8.596-30.5,3.472c-9.422-4.877-15.621-15.953-14.959-26.533
								C196.881,236.719,205.724,226.056,216.304,222.42z"/>
						</g>
					</g>
				</g>
			</g>
		</g>
	</g>
</g>
</svg>
