<?xml version="1.0" encoding="utf-8"?>
<!-- Generator: Adobe Illustrator 16.0.0, SVG Export Plug-In . SVG Version: 6.00 Build 0)  -->
<!DOCTYPE svg PUBLIC "-//W3C//DTD SVG 1.1//EN" "http://www.w3.org/Graphics/SVG/1.1/DTD/svg11.dtd">
<svg version="1.1" id="Layer_1" xmlns="http://www.w3.org/2000/svg" xmlns:xlink="http://www.w3.org/1999/xlink" x="0px" y="0px"
	 width="64px" height="64px" viewBox="192 218 64 64" enable-background="new 192 218 64 64" xml:space="preserve">
<g>
	<path d="M241.37,230.334c3.359,0,6.047-2.772,6.047-6.132s-2.688-6.131-6.047-6.131c-3.36,0-6.049,2.771-6.049,6.131
		S238.094,230.334,241.37,230.334z M241.37,221.346c1.596,0,2.855,1.344,2.855,2.939s-1.26,2.94-2.855,2.94
		c-1.597,0-2.856-1.345-2.856-2.94S239.774,221.346,241.37,221.346z"/>
	<path d="M215.165,239.572l-3.275,3.276c-0.588,0.671-0.588,1.68,0.168,2.268c0.252,0.336,0.756,0.504,1.092,0.504
		s0.756-0.168,1.092-0.504l3.275-3.276l3.276,3.276c0.252,0.336,0.672,0.504,1.092,0.504c0.336,0,0.756-0.168,1.092-0.504
		c0.588-0.672,0.588-1.68,0-2.268l-3.275-3.276l3.275-3.275c0.588-0.672,0.588-1.68,0-2.268c-0.672-0.588-1.68-0.588-2.268,0
		l-3.276,3.275l-3.275-3.275c-0.672-0.588-1.68-0.588-2.268,0c-0.588,0.672-0.588,1.68,0,2.268L215.165,239.572z"/>
	<path d="M247.081,259.226c-0.672-0.588-1.68-0.588-2.268,0l-3.275,3.275l-3.276-3.275c-0.672-0.588-1.68-0.588-2.268,0
		c-0.588,0.672-0.588,1.68,0,2.268l3.275,3.275l-3.275,3.275c-0.588,0.672-0.588,1.68,0,2.268c0.252,0.336,0.672,0.504,1.092,0.504
		c0.336,0,0.756-0.168,1.092-0.504l3.275-3.275l3.276,3.275c0.252,0.336,0.672,0.504,1.092,0.504c0.336,0,0.756-0.168,1.092-0.504
		c0.588-0.672,0.588-1.68,0-2.268l-3.275-3.275l3.275-3.275C247.501,260.822,247.501,259.814,247.081,259.226z"/>
	<path d="M248.005,240.16l-5.375-5.375c-0.672-0.588-1.68-0.588-2.269,0l-5.375,5.375c-0.588,0.672-0.588,1.68,0,2.269
		c0.252,0.335,0.672,0.503,1.092,0.503c0.336,0,0.756-0.168,1.092-0.503l2.688-2.688v3.528c0,5.039-4.115,9.154-9.239,9.154h-14.109
		c-6.887,0-12.43,5.544-12.43,12.347c0,0.924,0.756,1.596,1.596,1.596c0.924,0,1.596-0.756,1.596-1.596
		c0-5.039,4.116-9.155,9.239-9.155h14.109c6.888,0,12.432-5.543,12.432-12.346v-3.528l2.688,2.688
		c0.252,0.335,0.672,0.503,1.092,0.503c0.336,0,0.756-0.168,1.092-0.503C248.509,241.756,248.509,240.748,248.005,240.16z"/>
	<path d="M205.675,269.808c-3.359,0-6.047,2.771-6.047,6.132c0,3.359,2.688,6.131,6.047,6.131c3.36,0,6.047-2.771,6.047-6.131
		C211.722,272.58,209.034,269.808,205.675,269.808z M205.675,278.796c-1.596,0-2.856-1.344-2.856-2.939
		c0-1.597,1.26-2.939,2.856-2.939s2.855,1.343,2.855,2.939C208.53,277.452,207.27,278.796,205.675,278.796z"/>
	<path d="M228.519,267.289c-0.672-0.588-1.679-0.588-2.268,0l-3.275,3.275l-3.275-3.275c-0.672-0.588-1.68-0.588-2.268,0
		c-0.588,0.672-0.588,1.68,0,2.268l3.275,3.275l-3.275,3.276c-0.588,0.672-0.588,1.68,0,2.268c0.251,0.336,0.671,0.504,1.091,0.504
		c0.336,0,0.756-0.168,1.092-0.504l3.275-3.275l3.276,3.275c0.252,0.336,0.672,0.504,1.091,0.504c0.336,0,0.756-0.168,1.092-0.504
		c0.588-0.672,0.588-1.68,0-2.268l-3.275-3.276l3.275-3.275C228.939,268.885,228.939,267.961,228.519,267.289z"/>
</g>
</svg>
