<?xml version="1.0" encoding="utf-8"?>
<!-- Generator: Adobe Illustrator 16.0.0, SVG Export Plug-In . SVG Version: 6.00 Build 0)  -->
<!DOCTYPE svg PUBLIC "-//W3C//DTD SVG 1.1//EN" "http://www.w3.org/Graphics/SVG/1.1/DTD/svg11.dtd">
<svg version="1.1" id="Layer_1" xmlns="http://www.w3.org/2000/svg" xmlns:xlink="http://www.w3.org/1999/xlink" x="0px" y="0px"
	 width="64px" height="64px" viewBox="192 218 64 64" enable-background="new 192 218 64 64" xml:space="preserve">
<g>
	<path d="M206.247,282h35.657c4.19,0,7.543-3.429,7.543-7.543v-40.838c0-0.076,0-0.229,0-0.305l0,0c0-0.152-0.076-0.229-0.152-0.305
		c0,0,0-0.076-0.076-0.076c-0.076-0.076-0.152-0.229-0.229-0.305l0,0l-14.781-14.172l0,0c-0.076-0.076-0.152-0.152-0.305-0.229
		c0,0-0.076,0-0.076-0.076c-0.076-0.076-0.229-0.076-0.381-0.152c0,0,0,0-0.076,0s-0.152,0-0.229,0h-27.047
		c-4.191,0-7.543,3.429-7.543,7.543v48.914C198.705,278.648,202.057,282,206.247,282z M234.666,222.801l9.753,9.371h-5.104
		c-2.591,0-4.725-2.134-4.725-4.725v-4.646H234.666z M201.524,225.543c0-2.591,2.133-4.725,4.724-4.725h25.601v6.629
		c0,4.191,3.428,7.543,7.543,7.543h7.162v39.391c0,2.591-2.134,4.725-4.725,4.725h-35.656c-2.592,0-4.725-2.134-4.725-4.725v-48.838
		H201.524z M213.943,251.447c0.153,0,0.229,0,0.381-0.076c5.104-1.295,7.238-3.047,8.077-4.343c0.457,0.077,0.99,0.153,1.447,0.153
		h0.076l0,0c0,0,0,0,0.076,0h0.076c0.609,0,1.143-0.076,1.676-0.229c0.838,1.371,2.972,3.123,8.076,4.418
		c0.152,0,0.229,0.076,0.381,0.076c0.609,0,1.219-0.457,1.371-1.066c0.229-0.762-0.305-1.523-1.066-1.752
		c-3.886-0.99-5.638-2.21-6.247-2.972c0.229-0.229,0.457-0.457,0.686-0.686c2.591-2.972,2.21-7.924,2.134-8.458
		c-0.305-5.941-4.648-7.39-7.238-7.313c-2.591-0.076-6.934,1.372-7.238,7.313c-0.076,0.61-0.457,5.563,2.133,8.458
		c0.229,0.305,0.533,0.533,0.838,0.762c-0.609,0.686-2.209,1.829-6.171,2.819c-0.762,0.229-1.22,0.99-1.066,1.752
		C212.724,250.99,213.334,251.447,213.943,251.447z M219.58,236.819v-0.077c0.229-4.189,3.049-4.57,4.191-4.57
		c0.076,0,0.152,0,0.152,0H224c0.99-0.076,4.114,0.152,4.343,4.57v0.077c0.152,1.143,0.076,4.571-1.448,6.323
		c-0.686,0.762-1.676,1.22-2.895,1.22c0,0,0,0-0.076,0c-1.219,0-2.21-0.382-2.895-1.22
		C219.428,241.39,219.428,237.962,219.58,236.819z M209.295,258c0-0.762,0.609-1.447,1.447-1.447h26.668
		c0.762,0,1.447,0.609,1.447,1.447s-0.609,1.447-1.447,1.447h-26.668C209.981,259.447,209.295,258.838,209.295,258z
		 M209.295,263.258c0-0.763,0.609-1.448,1.447-1.448h26.668c0.762,0,1.447,0.609,1.447,1.448c0,0.838-0.609,1.447-1.447,1.447
		h-26.668C209.981,264.705,209.295,264.019,209.295,263.258z M209.295,268.513c0-0.762,0.609-1.447,1.447-1.447h20.115
		c0.762,0,1.447,0.609,1.447,1.447c0,0.763-0.609,1.448-1.447,1.448h-20.115C209.981,269.885,209.295,269.276,209.295,268.513z"/>
</g>
</svg>
