<?xml version="1.0" encoding="utf-8"?>
<!-- Generator: Adobe Illustrator 16.0.0, SVG Export Plug-In . SVG Version: 6.00 Build 0)  -->
<!DOCTYPE svg PUBLIC "-//W3C//DTD SVG 1.1//EN" "http://www.w3.org/Graphics/SVG/1.1/DTD/svg11.dtd">
<svg version="1.1" id="Layer_1" xmlns="http://www.w3.org/2000/svg" xmlns:xlink="http://www.w3.org/1999/xlink" x="0px" y="0px"
	 width="64px" height="64px" viewBox="192 218 64 64" enable-background="new 192 218 64 64" xml:space="preserve">
<g>
	<path d="M231.466,219.101c-13.528,0-24.534,11.046-24.534,24.623c0,2.782,0.45,5.455,1.316,7.898l0.024,0.136
		c0.371,1.021,0.687,1.788,1.033,2.508l-16.304,16.303c-0.101,0.102-0.161,0.179-0.187,0.293c-1.529,1.931-0.859,5.187,1.592,7.638
		c1.502,1.501,3.445,2.398,5.195,2.398c1.189,0,2.116-0.371,2.737-1.082l15.657-15.658c3.967,2.626,8.617,4.013,13.467,4.013h0.16
		h0.002c6.512,0,12.636-2.554,17.244-7.19c4.598-4.625,7.129-10.753,7.129-17.256C255.999,230.147,244.994,219.101,231.466,219.101z
		 M242.877,232.97c-2.687,0-4.872,2.187-4.872,4.872c0,0.805,0.203,1.582,0.605,2.314l-4.942,5.184
		c-0.682-0.337-1.422-0.52-2.114-0.52c-1.364,0-2.416,0.581-3.11,1.139l-3.521-2.144c0.121-0.392,0.18-0.791,0.18-1.233
		c0-2.686-2.186-4.871-4.873-4.871c-2.686,0-4.871,2.186-4.871,4.871c0,0.598,0.117,1.18,0.348,1.732l-5.172,4.245
		c-0.415-1.633-0.617-3.278-0.617-5.011c0-11.835,9.667-21.462,21.549-21.462c11.826,0,21.457,9.575,21.549,21.38l-5.548-4.104
		c0.149-0.466,0.282-0.954,0.282-1.521C247.749,235.157,245.564,232.97,242.877,232.97z M242.964,260.446
		c-0.865,0-1.447,0.748-1.447,1.447v0.906c-2.502,1.331-5.371,2.143-8.339,2.359v-0.633c0-0.866-0.749-1.448-1.448-1.448
		c-0.867,0-1.449,0.749-1.449,1.448v0.639c-8.232-0.487-15.482-5.74-18.618-13.507l6.036-4.975c0.349,0.237,0.741,0.431,1.172,0.579
		v1.289c0,0.866,0.748,1.449,1.447,1.449c0.867,0,1.449-0.749,1.449-1.449v-1.273c0.59-0.172,1.118-0.451,1.656-0.875l3.613,2.229
		c-0.119,0.384-0.18,0.769-0.18,1.149c0,2.161,1.357,4.011,3.336,4.605v1.274c0,0.866,0.75,1.449,1.449,1.449
		c0.866,0,1.448-0.749,1.448-1.449v-1.287c2.007-0.675,3.335-2.485,3.335-4.593c0-0.805-0.203-1.582-0.605-2.314l4.948-5.189
		c0.188,0.091,0.378,0.178,0.573,0.247v1.287c0,0.866,0.748,1.449,1.447,1.449c0.867,0,1.449-0.749,1.449-1.449v-1.288
		c0.527-0.175,0.979-0.397,1.365-0.675l6.839,5.036l0.104,0.059c0.025,0.015,0.053,0.03,0.081,0.046
		c-0.724,5.605-3.772,10.71-8.429,14.116C243.94,260.701,243.488,260.446,242.964,260.446z M243.711,239.62
		c-0.188,0.127-0.461,0.198-0.747,0.198c-0.158,0-0.261-0.002-0.439-0.079c-0.623-0.138-1.138-0.621-1.283-1.201l-0.055-0.123
		c-0.109-0.165-0.109-0.334-0.109-0.483c0-1.006,0.882-1.887,1.887-1.887c1.006,0,1.888,0.881,1.888,1.887l0.009,0.176
		C244.723,238.73,244.312,239.276,243.711,239.62z M218.431,242.672c0-1.006,0.882-1.887,1.887-1.887
		c1.006,0,1.888,0.881,1.888,1.887l0.009,0.09c-0.145,0.654-0.588,1.276-1.107,1.575c-0.584,0.29-1.145,0.228-1.615,0.072
		c-0.564-0.213-0.991-0.787-1.061-1.387V242.672z M229.666,249.692c0-0.664,0.474-1.231,0.923-1.489
		c0.313-0.155,0.601-0.222,0.965-0.222c0.16,0,0.286,0,0.528,0.079c0.788,0.174,1.149,0.854,1.313,1.282
		c0.044,0.088,0.046,0.198,0.046,0.438c0,1.005-0.882,1.887-1.887,1.887C230.548,251.668,229.666,250.786,229.666,249.692z
		 M195.068,272.605l15.701-15.699c1.223,1.889,2.821,3.718,4.76,5.446l-15.327,15.413c-0.135,0.135-0.363,0.206-0.66,0.206
		c-0.679,0-1.894-0.423-3.083-1.61C194.918,274.82,194.684,273.06,195.068,272.605z"/>
	<path d="M231.642,257.812c-0.867,0-1.449,0.75-1.449,1.449v1.667c0,0.866,0.75,1.448,1.449,1.448c0.866,0,1.448-0.749,1.448-1.448
		v-1.667C233.09,258.516,232.386,257.812,231.642,257.812z"/>
	<path d="M220.23,250.966c-0.865,0-1.447,0.749-1.447,1.448v2.545c0,0.866,0.748,1.449,1.447,1.449c0.867,0,1.449-0.75,1.449-1.449
		v-2.545C221.679,251.715,221.097,250.966,220.23,250.966z"/>
	<path d="M220.23,257.373c-0.865,0-1.447,0.749-1.447,1.448v0.967c0,0.866,0.748,1.449,1.447,1.449c0.867,0,1.449-0.75,1.449-1.449
		v-0.967C221.679,258.122,221.097,257.373,220.23,257.373z"/>
	<path d="M242.877,246.489c-0.866,0-1.448,0.749-1.448,1.447v2.547c0,0.866,0.748,1.449,1.448,1.449c0.866,0,1.448-0.75,1.448-1.449
		l-0.004-2.491c0.053-0.369-0.051-0.725-0.291-1.003C243.755,246.672,243.335,246.489,242.877,246.489z"/>
	<path d="M244.03,253.659c-0.275-0.317-0.695-0.5-1.152-0.5c-0.866,0-1.448,0.75-1.448,1.449v2.546c0,0.867,0.748,1.449,1.448,1.449
		c0.866,0,1.448-0.749,1.448-1.449l-0.004-2.49C244.374,254.295,244.271,253.937,244.03,253.659z"/>
</g>
</svg>
