<?xml version="1.0" encoding="utf-8"?>
<!-- Generator: Adobe Illustrator 16.0.0, SVG Export Plug-In . SVG Version: 6.00 Build 0)  -->
<!DOCTYPE svg PUBLIC "-//W3C//DTD SVG 1.1//EN" "http://www.w3.org/Graphics/SVG/1.1/DTD/svg11.dtd">
<svg version="1.1" id="Layer_1" xmlns="http://www.w3.org/2000/svg" xmlns:xlink="http://www.w3.org/1999/xlink" x="0px" y="0px"
	 width="64px" height="64px" viewBox="192 218 64 64" enable-background="new 192 218 64 64" xml:space="preserve">
<g>
	<path d="M194.632,260.131c0.148,0,0.223-0.074,0.372-0.074c0.743-0.223,1.189-0.966,0.966-1.709
		c-0.594-2.229-0.892-4.606-0.892-6.91c0-9.436,4.755-18.055,12.557-23.107l-0.148,0.966c-0.075,0.817,0.371,1.486,1.263,1.783
		c0.074,0,0.149,0,0.223,0c0.668,0,1.188-0.52,1.337-1.188l0.743-4.384c0.149-0.817-0.372-1.486-1.114-1.635l-4.458-0.817
		c-0.817-0.148-1.486,0.372-1.635,1.115c-0.148,0.817,0.372,1.486,1.115,1.634l1.263,0.223
		c-8.619,5.572-13.894,15.083-13.894,25.484c0,2.602,0.297,5.127,0.966,7.579C193.443,259.685,194.037,260.131,194.632,260.131z"/>
	<path d="M209.789,241.853c0.074,0.743,0.668,1.263,1.412,1.263h0.074c0.743-0.074,1.337-0.743,1.263-1.486
		c-0.074-0.966,0-2.601,1.114-2.898c4.755-1.188,6.761-2.823,7.579-4.086c0.446,0.074,0.892,0.149,1.337,0.149h0.074
		c0,0,0,0,0.075,0h0.074c0.521,0,1.041-0.075,1.561-0.223c0.817,1.263,2.823,2.972,7.579,4.161c1.189,0.297,1.189,1.932,1.114,2.898
		c-0.074,0.743,0.521,1.412,1.263,1.486h0.074c0.744,0,1.338-0.594,1.412-1.263c0.223-3.046-0.965-5.201-3.27-5.721
		c-3.566-0.892-5.2-2.006-5.795-2.675c0.371-0.149,0.52-0.372,0.743-0.595c2.452-2.749,2.081-7.43,2.081-7.95
		c-0.298-5.573-4.385-6.984-6.836-6.91c-2.452-0.074-6.539,1.263-6.836,6.91c-0.074,0.52-0.446,5.201,2.081,7.95
		c0.223,0.223,0.446,0.52,0.743,0.668c-0.668,0.669-2.229,1.709-5.646,2.601C210.829,236.726,209.64,238.881,209.789,241.853z
		 M218.63,225.135v-0.074c0.149-3.864,2.824-4.235,3.864-4.235c0.074,0,0.074,0,0.148,0h0.075c0.891,0,3.789,0.149,4.012,4.235
		v0.074c0.148,1.115,0.074,4.235-1.338,5.87c-0.668,0.743-1.56,1.115-2.674,1.115c-1.189,0-2.081-0.372-2.75-1.115
		C218.482,229.37,218.482,226.176,218.63,225.135z"/>
	<path d="M255.557,248.911c-0.594-0.446-1.486-0.372-1.932,0.223l-0.742,0.892c-0.521-12.037-8.248-22.81-19.615-27.045
		c-0.744-0.297-1.486,0.074-1.783,0.817c-0.298,0.743,0.074,1.486,0.816,1.783c10.328,3.864,17.387,13.746,17.832,24.742
		l-0.891-0.669c-0.596-0.445-1.486-0.371-1.933,0.223c-0.446,0.596-0.372,1.486,0.224,1.932l3.491,2.824
		c0.298,0.223,0.595,0.297,0.892,0.297c0.074,0,0.074,0,0.148,0c0.372-0.074,0.744-0.223,0.967-0.52l2.822-3.492
		C256.375,250.323,256.226,249.431,255.557,248.911z"/>
	<path d="M203.77,263.92c0.446,0.074,0.892,0.148,1.337,0.148h0.074c0,0,0,0,0.075,0h0.074c0.52,0,1.04-0.074,1.56-0.223
		c0.817,1.264,2.824,2.973,7.579,4.161c1.189,0.297,1.189,1.932,1.114,2.897c-0.074,0.743,0.521,1.412,1.263,1.486h0.075
		c0.743,0,1.337-0.595,1.412-1.264c0.223-3.046-0.966-5.201-3.27-5.721c-3.566-0.892-5.201-2.006-5.795-2.675
		c0.223-0.149,0.446-0.372,0.595-0.595c2.452-2.749,2.081-7.43,2.081-7.949c-0.297-5.573-4.384-6.985-6.836-6.911
		c-2.452-0.074-6.538,1.263-6.835,6.911c-0.074,0.52-0.446,5.2,2.081,7.949c0.223,0.223,0.446,0.521,0.743,0.669
		c-0.668,0.669-2.229,1.709-5.646,2.601c-2.229,0.594-3.418,2.749-3.27,5.721c0.075,0.743,0.669,1.264,1.412,1.264h0.074
		c0.743-0.074,1.337-0.743,1.263-1.486c-0.074-0.966,0-2.601,1.115-2.897C200.947,266.818,202.953,265.183,203.77,263.92z
		 M201.17,254.261v-0.074c0.148-3.864,2.823-4.236,3.863-4.236c0.074,0,0.074,0,0.148,0h0.075c0.892,0,3.789,0.149,4.012,4.236
		v0.074c0.149,1.113,0.075,4.234-1.337,5.869c-0.668,0.743-1.56,1.114-2.674,1.114c0,0,0,0-0.075,0
		c-1.188,0-2.006-0.371-2.675-1.114C201.095,258.496,201.021,255.375,201.17,254.261z"/>
	<path d="M249.762,265.258c-3.566-0.893-5.201-2.006-5.795-2.676c0.223-0.148,0.445-0.371,0.594-0.594
		c2.452-2.749,2.08-7.43,2.08-7.95c-0.297-5.572-4.383-6.984-6.835-6.91c-2.452-0.074-6.538,1.263-6.836,6.91
		c-0.074,0.521-0.446,5.201,2.081,7.95c0.223,0.223,0.445,0.52,0.742,0.669c-0.668,0.669-2.229,1.708-5.646,2.601
		c-2.229,0.594-3.418,2.749-3.27,5.721c0.074,0.743,0.669,1.264,1.412,1.264h0.074c0.743-0.074,1.338-0.744,1.264-1.486
		c-0.074-0.966,0-2.601,1.113-2.898c4.756-1.188,6.762-2.822,7.579-4.086c0.446,0.074,0.892,0.148,1.337,0.148h0.074
		c0,0,0,0,0.075,0h0.074c0.521,0,1.04-0.074,1.56-0.223c0.818,1.264,2.824,2.972,7.579,4.16c1.188,0.298,1.188,1.933,1.114,2.898
		c-0.074,0.742,0.521,1.412,1.264,1.486h0.074c0.742,0,1.338-0.595,1.412-1.264C253.18,268.007,251.99,265.851,249.762,265.258z
		 M242.481,260.131c-0.595,0.743-1.486,1.114-2.675,1.114s-2.081-0.371-2.749-1.114c-1.486-1.635-1.486-4.83-1.338-5.869v-0.074
		c0.148-3.864,2.824-4.236,3.863-4.236c0.074,0,0.074,0,0.148,0h0.075c0.892,0,3.789,0.149,4.012,4.236v0.074
		C243.967,255.375,243.893,258.496,242.481,260.131z"/>
	<path d="M241.663,271.349c-5.127,4.904-11.888,7.579-19.021,7.579c-6.167,0-12.111-2.007-16.94-5.796h1.189
		c0.743,0,1.337-0.668,1.337-1.411s-0.668-1.337-1.412-1.337l-4.458,0.074c-0.743,0-1.337,0.668-1.337,1.411l0.074,4.532
		c0,0.743,0.669,1.338,1.412,1.338c0.743,0,1.337-0.669,1.337-1.412v-1.114c5.35,4.235,11.962,6.538,18.798,6.538
		c7.875,0,15.305-2.972,20.953-8.396c0.595-0.52,0.595-1.411,0.074-1.932C243.149,270.83,242.258,270.83,241.663,271.349z"/>
</g>
</svg>
